<?xml version="1.0"?>
<svg xmlns="http://www.w3.org/2000/svg" height="512px" viewBox="0 0 57 59" width="512px"><g><g id="Page-1" fill="none" fill-rule="evenodd"><g id="066---outgoing-call" fill="rgb(0,0,0)" fill-rule="nonzero" transform="translate(-1)"><path id="Shape" d="m19.283 26.176c.3946623-.6193385.5493665-1.3615631.435-2.087l-2.14-13.549c-.2248684-1.46588209-1.4889838-2.54624993-2.972-2.54h-9.4c-1.31204523.00264845-2.47279794.85079761-2.874 2.1-3.754 11.463.468 25.52 10.758 35.81 7.8 7.8 17.754 12.109 27.107 12.109 2.9532788.0126354 5.8898348-.4437121 8.7-1.352 1.2503888-.400146 2.0999322-1.5611483 2.103-2.874v-9.4c.0062499-1.4830162-1.0741179-2.7471316-2.54-2.972l-13.549-2.14c-.7252199-.1132586-1.4668552.0417525-2.086.436l-5.225 3.329c-.4458632.2800017-1.0111197.2861836-1.463.016-4.2017695-2.4905768-7.7094232-5.9982305-10.2-10.2-.2700791-.4514459-.2642848-1.0161905.015-1.462zm-5.069 7.7c2.6639746 4.4954979 6.4170139 8.2478494 10.913 10.911 1.0985887.6511311 2.4697358.6302624 3.548-.054l5.225-3.333c.208416-.1307136.456609-.1828341.7-.147l13.547 2.147c.4926667.0762342.8553978.5014758.853 1v9.4c-.0044468.4473624-.2969029.8408048-.724.974-10.754 3.514-24.01-.517-33.776-10.274s-13.789-23.023-10.267-33.777c.13354928-.4267017.52690806-.7186919.974-.723h9.4c.4985242-.00239781.9237658.3603333 1 .853l2.135 13.547c.0384174.2433326-.0135129.4923132-.146.7l-3.329 5.223c-.6856909 1.07866-.7061846 2.4513512-.053 3.55z" data-original="#000000" class="active-path" data-old_color="#000000" fill="#008822"/><path id="Shape" d="m27 27c0 2.209139 1.790861 4 4 4s4-1.790861 4-4-1.790861-4-4-4-4 1.790861-4 4zm4-2c1.1045695 0 2 .8954305 2 2s-.8954305 2-2 2-2-.8954305-2-2 .8954305-2 2-2z" data-original="#000000" class="active-path" data-old_color="#000000" fill="#008822"/><path id="Shape" d="m31 6c11.592497.01322591 20.9867741 9.407503 21 21 0 .5522847.4477153 1 1 1h4c.5522847 0 1-.4477153 1-1-.0165334-14.9048345-12.0951655-26.98346661-27-27-.5522847 0-1 .44771525-1 1v4c0 .55228475.4477153 1 1 1zm1-3.98c13.0149286.53686365 23.4431364 10.9650714 23.98 23.98h-2c-.5336737-11.910995-10.0689807-21.44586823-21.98-21.979z" data-original="#000000" class="active-path" data-old_color="#000000" fill="#008822"/><path id="Shape" d="m30 16c0 .5522847.4477153 1 1 1 5.5203344.0060624 9.9939376 4.4796656 10 10 0 .5522847.4477153 1 1 1h4c.5522847 0 1-.4477153 1-1-.0104696-8.8322157-7.1677843-15.9895304-16-16-.5522847 0-1 .4477153-1 1zm2-2.965c6.9397509.5065191 12.4584809 6.0252491 12.965 12.965h-2.006c-.4966509-5.8344087-5.1245913-10.4623491-10.959-10.959z" data-original="#000000" class="active-path" data-old_color="#000000" fill="#008822"/></g></g></g> </svg>
